<svg width="82" height="74" viewBox="0 0 82 74" fill="none" xmlns="http://www.w3.org/2000/svg">
<path d="M77.0031 39.7324C77.2154 39.7324 77.3875 39.5795 77.3875 39.3909C77.3875 39.2022 77.2154 39.0493 77.0031 39.0493C76.7908 39.0493 76.6187 39.2022 76.6187 39.3909C76.6187 39.5795 76.7908 39.7324 77.0031 39.7324Z" fill="#231F20"/>
<path d="M8.45625 47.8154C8.66854 47.8154 8.84063 47.6625 8.84063 47.4739C8.84063 47.2852 8.66854 47.1323 8.45625 47.1323C8.24397 47.1323 8.07188 47.2852 8.07188 47.4739C8.07188 47.6625 8.24397 47.8154 8.45625 47.8154Z" fill="#231F20"/>
<path d="M75.3375 23.7939C76.1159 23.7939 76.7469 23.2332 76.7469 22.5416C76.7469 21.85 76.1159 21.2893 75.3375 21.2893C74.5591 21.2893 73.9281 21.85 73.9281 22.5416C73.9281 23.2332 74.5591 23.7939 75.3375 23.7939Z" stroke="#FBD108" stroke-miterlimit="10" stroke-linecap="round" stroke-linejoin="round"/>
<path d="M4.6125 53.166H7.04688M5.76563 54.1907V52.0276" stroke="#F16723" stroke-miterlimit="10" stroke-linecap="round" stroke-linejoin="round"/>
<path d="M75.3375 37.4555C75.6205 37.4555 75.85 37.2516 75.85 37.0001C75.85 36.7486 75.6205 36.5447 75.3375 36.5447C75.0544 36.5447 74.825 36.7486 74.825 37.0001C74.825 37.2516 75.0544 37.4555 75.3375 37.4555Z" fill="#231F20"/>
<path d="M22.0375 28.5754C22.2498 28.5754 22.4219 28.4225 22.4219 28.2339C22.4219 28.0452 22.2498 27.8923 22.0375 27.8923C21.8252 27.8923 21.6531 28.0452 21.6531 28.2339C21.6531 28.4225 21.8252 28.5754 22.0375 28.5754Z" fill="#231F20"/>
<path d="M52.0187 14.9138C52.231 14.9138 52.4031 14.7609 52.4031 14.5723C52.4031 14.3836 52.231 14.2307 52.0187 14.2307C51.8065 14.2307 51.6344 14.3836 51.6344 14.5723C51.6344 14.7609 51.8065 14.9138 52.0187 14.9138Z" fill="#231F20"/>
<path d="M9.86562 24.7046C10.0779 24.7046 10.25 24.5516 10.25 24.363C10.25 24.1744 10.0779 24.0215 9.86562 24.0215C9.65334 24.0215 9.48125 24.1744 9.48125 24.363C9.48125 24.5516 9.65334 24.7046 9.86562 24.7046Z" fill="#231F20"/>
<path d="M36.5156 31.3076C36.7279 31.3076 36.9 31.1547 36.9 30.9661C36.9 30.7774 36.7279 30.6245 36.5156 30.6245C36.3033 30.6245 36.1313 30.7774 36.1313 30.9661C36.1313 31.1547 36.3033 31.3076 36.5156 31.3076Z" fill="#231F20"/>
<path d="M71.8781 57.4924C72.0904 57.4924 72.2625 57.3395 72.2625 57.1509C72.2625 56.9622 72.0904 56.8093 71.8781 56.8093C71.6658 56.8093 71.4937 56.9622 71.4937 57.1509C71.4937 57.3395 71.6658 57.4924 71.8781 57.4924Z" fill="#231F20"/>
<path d="M20.3719 26.2985C20.6549 26.2985 20.8844 26.0946 20.8844 25.8431C20.8844 25.5916 20.6549 25.3877 20.3719 25.3877C20.0888 25.3877 19.8594 25.5916 19.8594 25.8431C19.8594 26.0946 20.0888 26.2985 20.3719 26.2985Z" fill="#231F20"/>
<path d="M35.2344 21.7447H37.6687M36.5156 22.8831V20.6062" stroke="#4D9AD4" stroke-miterlimit="10" stroke-linecap="round" stroke-linejoin="round"/>
<path d="M62.9094 26.2983H65.6C67.1375 26.2983 68.2906 27.4368 68.2906 28.6891V62.046H60.2188V28.803C60.2188 27.4368 61.3719 26.2983 62.9094 26.2983Z" fill="#3768A4"/>
<path d="M61.2437 26.9814H62.2687C62.7812 26.9814 63.2938 27.4368 63.2938 27.8922V62.843H60.2188V27.8922C60.2188 27.323 60.6031 26.9814 61.2437 26.9814Z" fill="white"/>
<path d="M63.2938 26.9814H64.575C65.3438 26.9814 65.8563 27.5507 65.8563 28.1199V62.7291H61.8844V28.1199C62.0125 27.4368 62.525 26.9814 63.2938 26.9814Z" fill="#4D9AD4"/>
<path d="M48.175 34.6091H50.8656C52.4031 34.6091 53.5562 35.7476 53.5562 36.9999V62.2738H45.4844V37.1137C45.4844 35.7476 46.7656 34.6091 48.175 34.6091Z" fill="#3768A4"/>
<path d="M46.5094 35.1785H47.5344C48.0469 35.1785 48.5594 35.6339 48.5594 36.0892V62.8431H45.4844V36.0892C45.4844 35.52 45.9969 35.1785 46.5094 35.1785Z" fill="white"/>
<path d="M48.5594 35.1785H49.8406C50.6094 35.1785 51.1219 35.7477 51.1219 36.3169V62.8431H47.15V36.3169C47.2781 35.6339 47.7906 35.1785 48.5594 35.1785Z" fill="#4D9AD4"/>
<path d="M33.5688 42.8062H36.2594C37.7969 42.8062 38.95 43.9446 38.95 45.1969V62.3877H30.75V45.3108C30.75 43.9446 32.0313 42.8062 33.5688 42.8062Z" fill="#3768A4"/>
<path d="M32.1594 43.1477H33.0563C33.5688 43.1477 33.9531 43.4892 33.9531 43.9446V62.7292H31.3906V43.9446C31.2625 43.4892 31.6469 43.1477 32.1594 43.1477Z" fill="white"/>
<path d="M33.825 43.1477H35.1062C35.875 43.1477 36.3875 43.7169 36.3875 44.2862V62.7292H32.4156V44.2862C32.5437 43.7169 33.1844 43.1477 33.825 43.1477Z" fill="#4D9AD4"/>
<path d="M18.8344 50.3201H21.525C23.0625 50.3201 24.2156 51.4585 24.2156 52.7108V62.6155H16.1438V52.7108C16.0156 51.3447 17.2969 50.3201 18.8344 50.3201Z" fill="#3768A4"/>
<path d="M17.6813 50.5476H18.7063C18.9625 50.5476 19.2188 50.7753 19.2188 51.003V62.843H16.1438V51.9138C16.0156 51.1168 16.7844 50.5476 17.6813 50.5476Z" fill="white"/>
<path d="M19.0906 50.5476H20.3719C21.1406 50.5476 21.6531 51.1168 21.6531 51.6861V62.843H17.6813V51.6861C17.8094 51.003 18.45 50.5476 19.0906 50.5476Z" fill="#4D9AD4"/>
<path d="M11.1469 62.5015H73.1594M11.7875 43.7169C11.7875 43.7169 50.3531 37.6831 68.5469 13.4338M65.7281 11.2708H71.1094V15.3692M68.2906 36.7723V62.5015H60.2187V29.4861C60.2187 28.0061 61.6281 26.7538 63.2937 26.7538H65.2156C66.8812 26.7538 68.2906 28.0061 68.2906 29.4861V34.3815M45.4844 42.6923V37.4554C45.4844 35.9754 46.8937 34.7231 48.5594 34.7231H50.4812C52.1469 34.7231 53.5562 35.9754 53.5562 37.4554V62.5015H45.4844V44.8554M38.95 50.7754V62.6154H30.75V45.5384C30.75 44.0584 32.1594 42.8061 33.825 42.8061H35.7469C37.4125 42.8061 38.8219 44.0584 38.8219 45.5384V48.6123M16.0156 55.5569V53.28C16.0156 51.8 17.425 50.5477 19.0906 50.5477H21.0125C22.6781 50.5477 24.0875 51.8 24.0875 53.28V62.5015H16.0156V58.1754" stroke="#231F20" stroke-width="1.5" stroke-miterlimit="10" stroke-linecap="round" stroke-linejoin="round"/>
</svg>
