<svg width="55" height="53" viewBox="0 0 55 53" fill="none" xmlns="http://www.w3.org/2000/svg">
<path d="M37.7 50.9212V7.43569C37.7 5.99405 37.1627 4.61147 36.2062 3.59208C35.2498 2.57269 33.9526 2 32.6 2H22.4C21.0474 2 19.7502 2.57269 18.7938 3.59208C17.8373 4.61147 17.3 5.99405 17.3 7.43569V50.9212M7.1 12.8714H47.9C50.7167 12.8714 53 15.305 53 18.3071V45.4855C53 48.4876 50.7167 50.9212 47.9 50.9212H7.1C4.28335 50.9212 2 48.4876 2 45.4855V18.3071C2 15.305 4.28335 12.8714 7.1 12.8714Z" stroke="#FFDDE2" stroke-width="4" stroke-linecap="round" stroke-linejoin="round"/>
</svg>
