<svg width="2" height="1" viewBox="0 0 2 1" fill="none" xmlns="http://www.w3.org/2000/svg">
<path d="M0.221765 0.380853C0.159074 0.417495 0.106168 0.468978 0.0676158 0.530855C0.0290633 0.592733 0.00602066 0.663146 0.000482724 0.736014C-0.00249493 0.776606 0.00836801 0.817005 0.0312703 0.850519C0.0928439 0.92815 0.212143 0.900979 0.304503 0.871867C0.523505 0.795041 0.755573 0.763358 0.986943 0.778694C1.21831 0.794029 1.44428 0.856072 1.65143 0.961144C1.68154 0.984079 1.71767 0.997576 1.75533 0.999959C1.84192 0.999959 1.87656 0.883513 1.87848 0.794238C1.88041 0.66977 1.86879 0.545463 1.84384 0.42355C1.83419 0.350136 1.81017 0.27939 1.77317 0.215421C1.73617 0.151452 1.68694 0.095536 1.62834 0.0509221C1.53754 0.0131904 1.43962 -0.00393624 1.34152 0.00075928C1.24343 0.0054548 1.14756 0.0318574 1.06071 0.0780928C0.77144 0.149509 0.490291 0.250971 0.221765 0.380853Z" fill="white"/>
</svg>
