<svg width="66" height="65" viewBox="0 0 66 65" fill="none" xmlns="http://www.w3.org/2000/svg">
<g clip-path="url(#clip0_16_173)">
<path d="M52.3836 0.952148H13.6177C11.4819 0.952148 9.75047 2.65731 9.75047 4.76074V60.2393C9.75047 62.3427 11.4819 64.0479 13.6177 64.0479H52.3836C54.5194 64.0479 56.2508 62.3427 56.2508 60.2393V4.76074C56.2508 2.65731 54.5194 0.952148 52.3836 0.952148Z" fill="#FFF8CC"/>
<path d="M30.1022 28.4083H18.3227C17.9587 28.4083 17.5982 28.3376 17.2618 28.2004C16.9255 28.0631 16.6199 27.8619 16.3625 27.6084C16.1052 27.3548 15.901 27.0537 15.7618 26.7224C15.6226 26.3911 15.5511 26.036 15.5512 25.6775V24.9627C15.5509 23.7838 15.9683 22.6417 16.7314 21.7335C17.4946 20.8252 18.5557 20.2077 19.7317 19.9875L24.2125 19.1458L28.6932 19.9875C29.8688 20.2082 30.9292 20.8259 31.6919 21.7342C32.4545 22.6424 32.8716 23.7842 32.8711 24.9627V25.6775C32.8714 26.4012 32.5799 27.0954 32.0607 27.6075C31.5415 28.1195 30.837 28.4076 30.1022 28.4083Z" fill="#FF6666"/>
<path d="M28.6932 19.9875L24.2125 19.1458L23.0317 19.3679L26.333 19.9875C27.509 20.2077 28.57 20.8252 29.3332 21.7335C30.0964 22.6417 30.5138 23.7838 30.5134 24.9627V25.6775C30.5134 26.4015 30.2214 27.0959 29.7017 27.608C29.182 28.1201 28.4771 28.4079 27.7419 28.4083H30.1022C30.837 28.4076 31.5415 28.1195 32.0607 27.6075C32.5799 27.0954 32.8714 26.4012 32.8711 25.6775V24.9627C32.8716 23.7842 32.4545 22.6424 31.6919 21.7342C30.9292 20.8259 29.8688 20.2082 28.6932 19.9875Z" fill="#FF4E4E"/>
<path d="M22.315 18.365H26.11V20.2337C26.11 20.7294 25.91 21.2047 25.5542 21.5551C25.1983 21.9056 24.7157 22.1025 24.2125 22.1025C23.7092 22.1025 23.2266 21.9056 22.8707 21.5551C22.5149 21.2047 22.315 20.7294 22.315 20.2337V18.365Z" fill="#FFCD85"/>
<path d="M22.315 18.365H26.11V20.2337C26.11 20.7294 25.91 21.2047 25.5542 21.5551C25.1983 21.9056 24.7157 22.1025 24.2125 22.1025C23.7092 22.1025 23.2266 21.9056 22.8707 21.5551C22.5149 21.2047 22.315 20.7294 22.315 20.2337V18.365Z" fill="#FFCD85"/>
<path d="M24.5914 18.365V20.2325C24.5914 20.596 24.4837 20.9517 24.2816 21.2559C24.0794 21.5601 23.7915 21.7996 23.4532 21.9451C23.6925 22.0484 23.9511 22.1016 24.2125 22.1012C24.7157 22.1012 25.1983 21.9043 25.5542 21.5539C25.91 21.2034 26.11 20.7281 26.11 20.2325V18.365H24.5914Z" fill="#FFC166"/>
<path d="M27.3101 10.1562L19.675 11.573V8.08311C19.675 7.2998 20.3195 6.46191 21.1148 6.46191H28.7461V8.73818C28.7461 9.11362 28.5949 9.47373 28.3257 9.73956C28.0565 10.0054 27.6913 10.1552 27.3101 10.1562Z" fill="#595F74"/>
<path d="M26.8125 6.46191V8.73818C26.8125 9.11362 26.6613 9.47373 26.3921 9.73956C26.1229 10.0054 25.7577 10.1552 25.3765 10.1562L19.675 11.2138V11.573L27.3101 10.1562C27.6913 10.1552 28.0565 10.0054 28.3257 9.73956C28.5949 9.47373 28.7461 9.11362 28.7461 8.73818V6.46191H26.8125Z" fill="#4A4F60"/>
<path d="M21.325 10.1563H27.1C27.5367 10.1573 27.9552 10.3287 28.2637 10.6331C28.5723 10.9375 28.7458 11.3499 28.7461 11.78V14.6237C28.7461 15.8089 28.268 16.9456 27.4171 17.7836C26.5661 18.6217 25.412 19.0925 24.2086 19.0925C23.0052 19.0925 21.851 18.6217 21.0001 17.7836C20.1492 16.9456 19.6711 15.8089 19.6711 14.6237V11.78C19.6713 11.5664 19.7142 11.3549 19.7974 11.1576C19.8807 10.9604 20.0026 10.7812 20.1562 10.6304C20.3098 10.4796 20.4921 10.3601 20.6926 10.2787C20.8932 10.1974 21.1081 10.1558 21.325 10.1563Z" fill="#FFCD85"/>
<path d="M27.1 10.1562H25.1664C25.6031 10.1573 26.0216 10.3287 26.3301 10.6331C26.6387 10.9375 26.8122 11.3499 26.8125 11.78V14.6237C26.8122 15.6434 26.4579 16.6324 25.8085 17.4265C25.159 18.2206 24.2533 18.7722 23.2418 18.9896C23.5595 19.0575 23.8835 19.0919 24.2086 19.0925C25.412 19.0925 26.5661 18.6217 27.4171 17.7836C28.268 16.9456 28.7461 15.8089 28.7461 14.6237V11.78C28.7457 11.3499 28.5723 10.9375 28.2637 10.6331C27.9552 10.3287 27.5367 10.1573 27.1 10.1562Z" fill="#FFC166"/>
<path d="M16.5181 33.4521C16.3268 33.4521 16.1399 33.508 15.9809 33.6126C15.8219 33.7172 15.698 33.8659 15.6248 34.0399C15.5517 34.2139 15.5325 34.4053 15.5698 34.59C15.6071 34.7747 15.6992 34.9444 15.8344 35.0776C15.9696 35.2107 16.1419 35.3014 16.3294 35.3382C16.517 35.3749 16.7114 35.356 16.888 35.284C17.0647 35.2119 17.2157 35.0899 17.3219 34.9333C17.4281 34.7767 17.4848 34.5926 17.4848 34.4043C17.4848 34.1518 17.383 33.9096 17.2017 33.731C17.0204 33.5525 16.7745 33.4521 16.5181 33.4521ZM16.5181 50.5908C16.3268 50.5908 16.1399 50.6467 15.9809 50.7513C15.8219 50.8559 15.698 51.0046 15.6248 51.1786C15.5517 51.3526 15.5325 51.544 15.5698 51.7287C15.6071 51.9134 15.6992 52.0831 15.8344 52.2162C15.9696 52.3494 16.1419 52.4401 16.3294 52.4768C16.517 52.5136 16.7114 52.4947 16.888 52.4226C17.0647 52.3506 17.2157 52.2285 17.3219 52.072C17.4281 51.9154 17.4848 51.7313 17.4848 51.543C17.4848 51.2904 17.383 51.0483 17.2017 50.8697C17.0204 50.6911 16.7745 50.5908 16.5181 50.5908ZM16.5181 39.165C16.3268 39.165 16.1399 39.2209 15.9809 39.3255C15.8219 39.4301 15.698 39.5788 15.6248 39.7528C15.5517 39.9268 15.5325 40.1182 15.5698 40.3029C15.6071 40.4876 15.6992 40.6573 15.8344 40.7905C15.9696 40.9236 16.1419 41.0143 16.3294 41.051C16.517 41.0878 16.7114 41.0689 16.888 40.9969C17.0647 40.9248 17.2157 40.8028 17.3219 40.6462C17.4281 40.4896 17.4848 40.3055 17.4848 40.1172C17.4848 39.8647 17.383 39.6225 17.2017 39.4439C17.0204 39.2654 16.7745 39.165 16.5181 39.165ZM16.5181 56.3037C16.3268 56.3037 16.1399 56.3596 15.9809 56.4642C15.8219 56.5688 15.698 56.7175 15.6248 56.8915C15.5517 57.0655 15.5325 57.2569 15.5698 57.4416C15.6071 57.6263 15.6992 57.796 15.8344 57.9291C15.9696 58.0623 16.1419 58.153 16.3294 58.1897C16.517 58.2265 16.7114 58.2076 16.888 58.1355C17.0647 58.0635 17.2157 57.9414 17.3219 57.7848C17.4281 57.6283 17.4848 57.4442 17.4848 57.2559C17.4848 57.0033 17.383 56.7612 17.2017 56.5826C17.0204 56.404 16.7745 56.3037 16.5181 56.3037ZM33.8405 25.6775V24.9628C33.8395 23.5627 33.3432 22.2067 32.437 21.128C31.5308 20.0492 30.2713 19.3151 28.875 19.0519L27.6826 18.8284C28.3184 18.3211 28.8311 17.6803 29.1833 16.9528C29.5354 16.2254 29.7181 15.4296 29.7181 14.6237V11.78C29.7178 11.2176 29.5293 10.671 29.1818 10.2248C29.5291 9.80488 29.7185 9.27976 29.7181 8.73818V6.46191C29.7181 6.20939 29.6162 5.96721 29.4349 5.78864C29.2536 5.61008 29.0077 5.50977 28.7513 5.50977H21.1148C19.6969 5.50977 18.7082 6.86562 18.7082 8.08311V11.573C18.7084 11.6066 18.7105 11.6401 18.7146 11.6733C18.7146 11.7089 18.7082 11.7444 18.7082 11.78V14.6237C18.7081 15.4296 18.8908 16.2254 19.2429 16.9528C19.5951 17.6803 20.1078 18.3211 20.7436 18.8284L19.5512 19.0519C18.1547 19.3148 16.8949 20.0488 15.9884 21.1276C15.082 22.2064 14.5855 23.5625 14.5845 24.9628V25.6775C14.5845 26.654 14.9783 27.5904 15.6794 28.2809C16.3804 28.9713 17.3313 29.3592 18.3227 29.3592H30.1022C31.0936 29.3592 32.0445 28.9713 32.7456 28.2809C33.4466 27.5904 33.8405 26.654 33.8405 25.6775ZM20.6418 8.08311C20.6418 7.76699 20.9241 7.41406 21.1148 7.41406H27.7832V8.73818C27.7828 8.86165 27.7329 8.97996 27.6442 9.06727C27.5556 9.15457 27.4354 9.20377 27.3101 9.2041C27.2762 9.20217 27.2422 9.20217 27.2082 9.2041H21.325C21.0941 9.20466 20.8644 9.23539 20.6418 9.29551V8.08311ZM20.6418 14.6237V11.78C20.6421 11.6017 20.7142 11.4309 20.8423 11.305C20.9704 11.1791 21.144 11.1084 21.325 11.1084H27.1C27.2809 11.1084 27.4545 11.1791 27.5826 11.305C27.7107 11.4309 27.7828 11.6017 27.7832 11.78V14.6237C27.7832 15.5564 27.407 16.4509 26.7373 17.1103C26.0677 17.7698 25.1595 18.1403 24.2125 18.1403C23.2655 18.1403 22.3572 17.7698 21.6876 17.1103C21.018 16.4509 20.6418 15.5564 20.6418 14.6237ZM25.1432 19.9659V20.2325C25.1432 20.3529 25.1191 20.4721 25.0723 20.5833C25.0256 20.6945 24.957 20.7955 24.8706 20.8807C24.7841 20.9658 24.6815 21.0333 24.5686 21.0793C24.4557 21.1254 24.3347 21.1491 24.2125 21.1491C24.0902 21.1491 23.9692 21.1254 23.8563 21.0793C23.7434 21.0333 23.6408 20.9658 23.5544 20.8807C23.4679 20.7955 23.3994 20.6945 23.3526 20.5833C23.3058 20.4721 23.2818 20.3529 23.2818 20.2325V19.9659C23.8977 20.0709 24.5273 20.0709 25.1432 19.9659ZM16.5181 25.6788V24.9641C16.5189 24.007 16.8582 23.0802 17.4776 22.3428C18.097 21.6054 18.9578 21.1034 19.9122 20.9231L21.3791 20.6489C21.476 21.3217 21.8162 21.9375 22.3372 22.383C22.8582 22.8285 23.525 23.0739 24.215 23.0739C24.905 23.0739 25.5719 22.8285 26.0929 22.383C26.6139 21.9375 26.9541 21.3217 27.051 20.6489L28.5179 20.9231C29.4723 21.1034 30.3331 21.6054 30.9525 22.3428C31.5719 23.0802 31.9112 24.007 31.912 24.9641V25.6788C31.912 26.1502 31.7219 26.6023 31.3835 26.9356C31.045 27.2689 30.586 27.4562 30.1073 27.4562H18.3227C18.0856 27.4562 17.8509 27.4101 17.6318 27.3207C17.4128 27.2313 17.2138 27.1003 17.0462 26.9351C16.8786 26.77 16.7457 26.5739 16.6551 26.3581C16.5644 26.1423 16.5179 25.911 16.5181 25.6775V25.6788ZM16.5181 44.8792C16.3268 44.8792 16.1399 44.935 15.9809 45.0397C15.8219 45.1443 15.698 45.293 15.6248 45.467C15.5517 45.641 15.5325 45.8324 15.5698 46.0171C15.6071 46.2018 15.6992 46.3715 15.8344 46.5046C15.9696 46.6378 16.1419 46.7285 16.3294 46.7652C16.517 46.8019 16.7114 46.7831 16.888 46.711C17.0647 46.639 17.2157 46.5169 17.3219 46.3603C17.4281 46.2038 17.4848 46.0197 17.4848 45.8313C17.485 45.7062 17.4601 45.5823 17.4116 45.4666C17.3631 45.3509 17.2919 45.2458 17.2021 45.1573C17.1123 45.0687 17.0057 44.9985 16.8883 44.9505C16.7709 44.9026 16.6451 44.8779 16.5181 44.8779V44.8792ZM50.4487 27.4562H37.602C37.3455 27.4562 37.0996 27.5565 36.9183 27.735C36.737 27.9136 36.6352 28.1558 36.6352 28.4083C36.6352 28.6608 36.737 28.903 36.9183 29.0816C37.0996 29.2601 37.3455 29.3604 37.602 29.3604H50.4487C50.7052 29.3604 50.9511 29.2601 51.1324 29.0816C51.3137 28.903 51.4155 28.6608 51.4155 28.4083C51.4155 28.1558 51.3137 27.9136 51.1324 27.735C50.9511 27.5565 50.7052 27.4562 50.4487 27.4562ZM50.4487 23.6476H37.602C37.3455 23.6476 37.0996 23.7479 36.9183 23.9264C36.737 24.105 36.6352 24.3472 36.6352 24.5997C36.6352 24.8522 36.737 25.0944 36.9183 25.273C37.0996 25.4515 37.3455 25.5519 37.602 25.5519H50.4487C50.7052 25.5519 50.9511 25.4515 51.1324 25.273C51.3137 25.0944 51.4155 24.8522 51.4155 24.5997C51.4155 24.3472 51.3137 24.105 51.1324 23.9264C50.9511 23.7479 50.7052 23.6476 50.4487 23.6476ZM50.4487 5.71289H37.602C37.3455 5.71289 37.0996 5.81321 36.9183 5.99177C36.737 6.17033 36.6352 6.41251 36.6352 6.66504C36.6352 6.91756 36.737 7.15975 36.9183 7.33831C37.0996 7.51687 37.3455 7.61719 37.602 7.61719H50.4487C50.7052 7.61719 50.9511 7.51687 51.1324 7.33831C51.3137 7.15975 51.4155 6.91756 51.4155 6.66504C51.4155 6.41251 51.3137 6.17033 51.1324 5.99177C50.9511 5.81321 50.7052 5.71289 50.4487 5.71289ZM37.602 11.4258H44.648C44.9044 11.4258 45.1503 11.3255 45.3316 11.1469C45.5129 10.9683 45.6148 10.7262 45.6148 10.4736C45.6148 10.2211 45.5129 9.97892 45.3316 9.80036C45.1503 9.6218 44.9044 9.52148 44.648 9.52148H37.602C37.3455 9.52148 37.0996 9.6218 36.9183 9.80036C36.737 9.97892 36.6352 10.2211 36.6352 10.4736C36.6352 10.7262 36.737 10.9683 36.9183 11.1469C37.0996 11.3255 37.3455 11.4258 37.602 11.4258ZM52.3823 0H13.6177C12.336 0.00134421 11.1073 0.503353 10.201 1.39587C9.29477 2.28839 8.78504 3.49853 8.78368 4.76074V60.2393C8.78504 61.5015 9.29477 62.7116 10.201 63.6041C11.1073 64.4967 12.336 64.9987 13.6177 65H52.3823C53.664 64.9987 54.8927 64.4967 55.799 63.6041C56.7052 62.7116 57.215 61.5015 57.2163 60.2393V4.76074C57.215 3.49853 56.7052 2.28839 55.799 1.39587C54.8927 0.503353 53.664 0.00134421 52.3823 0ZM55.2827 60.2393C55.2821 60.9966 54.9763 61.7228 54.4325 62.2583C53.8887 62.7939 53.1514 63.095 52.3823 63.0957H13.6177C12.8486 63.095 12.1113 62.7939 11.5675 62.2583C11.0237 61.7228 10.718 60.9966 10.7173 60.2393V4.76074C10.718 4.00337 11.0237 3.27721 11.5675 2.74167C12.1113 2.20613 12.8486 1.90497 13.6177 1.9043H52.3823C53.1514 1.90497 53.8887 2.20613 54.4325 2.74167C54.9763 3.27721 55.2821 4.00337 55.2827 4.76074V60.2393ZM50.4487 50.5908H21.6202C21.3638 50.5908 21.1178 50.6911 20.9365 50.8697C20.7552 51.0483 20.6534 51.2904 20.6534 51.543C20.6534 51.7955 20.7552 52.0377 20.9365 52.2162C21.1178 52.3948 21.3638 52.4951 21.6202 52.4951H50.4487C50.7052 52.4951 50.9511 52.3948 51.1324 52.2162C51.3137 52.0377 51.4155 51.7955 51.4155 51.543C51.4155 51.2904 51.3137 51.0483 51.1324 50.8697C50.9511 50.6911 50.7052 50.5908 50.4487 50.5908ZM50.4487 56.3037H21.6202C21.3638 56.3037 21.1178 56.404 20.9365 56.5826C20.7552 56.7612 20.6534 57.0033 20.6534 57.2559C20.6534 57.5084 20.7552 57.7506 20.9365 57.9291C21.1178 58.1077 21.3638 58.208 21.6202 58.208H50.4487C50.7052 58.208 50.9511 58.1077 51.1324 57.9291C51.3137 57.7506 51.4155 57.5084 51.4155 57.2559C51.4155 57.0033 51.3137 56.7612 51.1324 56.5826C50.9511 56.404 50.7052 56.3037 50.4487 56.3037ZM50.4487 33.4521H21.6202C21.3638 33.4521 21.1178 33.5525 20.9365 33.731C20.7552 33.9096 20.6534 34.1518 20.6534 34.4043C20.6534 34.6568 20.7552 34.899 20.9365 35.0776C21.1178 35.2561 21.3638 35.3564 21.6202 35.3564H50.4487C50.7052 35.3564 50.9511 35.2561 51.1324 35.0776C51.3137 34.899 51.4155 34.6568 51.4155 34.4043C51.4155 34.1518 51.3137 33.9096 51.1324 33.731C50.9511 33.5525 50.7052 33.4521 50.4487 33.4521ZM50.4487 44.8779H21.6202C21.3638 44.8779 21.1178 44.9782 20.9365 45.1568C20.7552 45.3354 20.6534 45.5776 20.6534 45.8301C20.6534 46.0826 20.7552 46.3248 20.9365 46.5033C21.1178 46.6819 21.3638 46.7822 21.6202 46.7822H50.4487C50.7052 46.7822 50.9511 46.6819 51.1324 46.5033C51.3137 46.3248 51.4155 46.0826 51.4155 45.8301C51.4155 45.5776 51.3137 45.3354 51.1324 45.1568C50.9511 44.9782 50.7052 44.8779 50.4487 44.8779ZM50.4487 39.165H21.6202C21.3638 39.165 21.1178 39.2654 20.9365 39.4439C20.7552 39.6225 20.6534 39.8647 20.6534 40.1172C20.6534 40.3697 20.7552 40.6119 20.9365 40.7905C21.1178 40.969 21.3638 41.0693 21.6202 41.0693H50.4487C50.7052 41.0693 50.9511 40.969 51.1324 40.7905C51.3137 40.6119 51.4155 40.3697 51.4155 40.1172C51.4155 39.8647 51.3137 39.6225 51.1324 39.4439C50.9511 39.2654 50.7052 39.165 50.4487 39.165Z" fill="#272A33"/>
</g>
<defs>
<clipPath id="clip0_16_173">
<rect width="66" height="65" fill="white"/>
</clipPath>
</defs>
</svg>
